<svg width="41" height="40" viewBox="0 0 41 40" fill="none" xmlns="http://www.w3.org/2000/svg">
<g id="linkedin 1">
<g id="_x31_0.Linkedin">
<path id="Vector" d="M36.1217 36V35.9988H36.1297V24.2628C36.1297 18.5216 34.8937 14.0988 28.1817 14.0988C24.9549 14.0988 22.7897 15.8696 21.9057 17.548H21.8125V14.6348H15.4485V35.9988H22.0753V25.42C22.0753 22.6348 22.6033 19.9412 26.0525 19.9412C29.4513 19.9412 29.5017 23.12 29.5017 25.5984V36H36.1217Z" fill="white"/>
<path id="Vector_2" d="M4.65771 14.636H11.2925V36H4.65771V14.636Z" fill="white"/>
<path id="Vector_3" d="M7.97244 4C5.85084 4 4.12964 5.7212 4.12964 7.8428C4.12964 9.9644 5.85084 11.7216 7.97244 11.7216C10.094 11.7216 11.8152 9.9644 11.8152 7.8428C11.8136 5.7212 10.0924 4 7.97244 4Z" fill="white"/>
</g>
</g>
</svg>
