<svg width="41" height="40" viewBox="0 0 41 40" fill="none" xmlns="http://www.w3.org/2000/svg">
<g id="instagram 1" clip-path="url(#clip0_13_2392)">
<path id="Vector" d="M40.0906 11.7601C39.9968 9.63476 39.6532 8.17359 39.1608 6.90748C38.6529 5.56353 37.8715 4.36029 36.8477 3.36003C35.8475 2.34421 34.6363 1.55487 33.3079 1.05489C32.0345 0.562549 30.5809 0.218854 28.4556 0.125146C26.3144 0.0235031 25.6346 0 20.2039 0C14.7731 0 14.0934 0.0235031 11.9601 0.11721C9.83471 0.210918 8.37354 0.554918 7.10773 1.04696C5.76348 1.55487 4.56024 2.33627 3.55998 3.36003C2.54416 4.36029 1.75513 5.57146 1.25484 6.89985C0.7625 8.17359 0.418805 9.62682 0.325098 11.7522C0.223454 13.8934 0.199951 14.5732 0.199951 20.0039C0.199951 25.4347 0.223454 26.1144 0.317162 28.2477C0.410869 30.3731 0.754869 31.8342 1.24721 33.1003C1.75513 34.4443 2.54416 35.6475 3.55998 36.6478C4.56024 37.6636 5.77141 38.4529 7.0998 38.9529C8.37354 39.4453 9.82677 39.789 11.9524 39.8827C14.0854 39.9767 14.7655 39.9999 20.1962 39.9999C25.627 39.9999 26.3067 39.9767 28.44 39.8827C30.5654 39.789 32.0265 39.4453 33.2924 38.9529C35.9806 37.9136 38.1059 35.7882 39.1452 33.1003C39.6373 31.8266 39.9813 30.3731 40.075 28.2477C40.1687 26.1144 40.1922 25.4347 40.1922 20.0039C40.1922 14.5732 40.1843 13.8934 40.0906 11.7601ZM36.4885 28.0914C36.4024 30.0449 36.0743 31.0998 35.8008 31.8031C35.1287 33.5457 33.7456 34.9287 32.003 35.6008C31.2998 35.8743 30.2373 36.2024 28.2914 36.2882C26.1816 36.3822 25.5488 36.4054 20.2118 36.4054C14.8748 36.4054 14.2341 36.3822 12.1319 36.2882C10.1784 36.2024 9.12351 35.8743 8.42025 35.6008C7.55307 35.2803 6.76373 34.7724 6.12304 34.1082C5.45885 33.4596 4.95094 32.6782 4.63044 31.811C4.35695 31.1078 4.02882 30.0449 3.94305 28.0994C3.84904 25.9896 3.82584 25.3565 3.82584 20.0195C3.82584 14.6824 3.84904 14.0417 3.94305 11.9399C4.02882 9.98639 4.35695 8.93149 4.63044 8.22823C4.95094 7.36075 5.45885 6.57172 6.13098 5.93072C6.7793 5.26653 7.5607 4.75862 8.42818 4.43843C9.13144 4.16494 10.1943 3.83681 12.1398 3.75073C14.2496 3.65703 14.8827 3.63352 20.2194 3.63352C25.5644 3.63352 26.1972 3.65703 28.2993 3.75073C30.2528 3.83681 31.3077 4.16494 32.011 4.43843C32.8782 4.75862 33.6675 5.26653 34.3082 5.93072C34.9724 6.57935 35.4803 7.36075 35.8008 8.22823C36.0743 8.93149 36.4024 9.99402 36.4885 11.9399C36.5822 14.0497 36.6057 14.6824 36.6057 20.0195C36.6057 25.3565 36.5822 25.9816 36.4885 28.0914Z" fill="white"/>
<path id="Vector_2" d="M20.2039 9.72845C14.5311 9.72845 9.92847 14.3308 9.92847 20.0039C9.92847 25.677 14.5311 30.2793 20.2039 30.2793C25.877 30.2793 30.4794 25.677 30.4794 20.0039C30.4794 14.3308 25.877 9.72845 20.2039 9.72845ZM20.2039 26.6693C16.5237 26.6693 13.5385 23.6844 13.5385 20.0039C13.5385 16.3234 16.5237 13.3385 20.2039 13.3385C23.8844 13.3385 26.8693 16.3234 26.8693 20.0039C26.8693 23.6844 23.8844 26.6693 20.2039 26.6693Z" fill="white"/>
<path id="Vector_3" d="M33.2846 9.32218C33.2846 10.6469 32.2104 11.721 30.8854 11.721C29.5607 11.721 28.4866 10.6469 28.4866 9.32218C28.4866 7.99716 29.5607 6.92334 30.8854 6.92334C32.2104 6.92334 33.2846 7.99716 33.2846 9.32218Z" fill="white"/>
</g>
<defs>
<clipPath id="clip0_13_2392">
<rect width="40" height="40" fill="white" transform="translate(0.129639)"/>
</clipPath>
</defs>
</svg>
